<svg xmlns="http://www.w3.org/2000/svg" width="202" height="20" viewBox="0 0 202 20">
    <g fill="none" fill-rule="evenodd">
        <path fill="#293440" d="M30.078 19.971c-1.824 0-3.249-.215-4.278-.647-1.03-.435-1.763-1.158-2.2-2.174-.438-1.015-.659-2.423-.659-4.224v-5.66c.024-1.945.264-3.435.73-4.47.46-1.039 1.221-1.761 2.288-2.173C27.032.206 28.554 0 30.53 0h7.7c1.68 0 3.067.192 4.162.57 1.1.384 1.95 1.077 2.553 2.078.605 1.002.907 2.4.907 4.191h-4.857c0-1.044-.272-1.786-.822-2.222-.55-.436-1.462-.651-2.732-.651h-6.008c-1.11 0-1.923.076-2.44.23-.517.148-.874.464-1.072.938-.197.479-.297 1.25-.297 2.309v4.942c0 .992.128 1.753.381 2.275.25.522.644.876 1.171 1.063.532.187 1.274.282 2.229.282h6.008c.935 0 1.655-.076 2.158-.224.503-.149.87-.436 1.104-.857.231-.417.348-1.035.348-1.85h4.857c-.01 1.83-.207 3.234-.588 4.206-.386.977-1.076 1.666-2.078 2.078-1.001.407-2.473.613-4.414.613h-8.72zM50.632 20h-5.467L55.545.057h6.939L72.78 20h-5.501l-2.515-5.03H53.176L50.632 20zm4.428-8.793h7.818l-3.727-7.414h-.221l-3.87 7.414zm23.667-7.183v6.091h9.788c.983 0 1.674-.235 2.068-.704.395-.47.597-1.25.612-2.342 0-1.092-.194-1.872-.579-2.342-.385-.47-1.086-.703-2.101-.703h-9.788zM96.244 20h-4.71v-3.098c0-.992-.288-1.71-.861-2.156-.57-.445-1.524-.665-2.859-.665h-9.06V20h-4.71V.057H88.91c1.09 0 2.054.106 2.886.317.828.21 1.552.574 2.163 1.091.607.518 1.082 1.231 1.415 2.151.338.92.503 2.074.503 3.458 0 1.379-.254 2.457-.766 3.237-.512.776-1.208 1.433-2.083 1.959.842.33 1.448.59 1.806.775.361.193.686.509.977.959.287.455.433 1.073.433 1.858V20zm9.586-3.966h8.429c1.152 0 2.036-.115 2.652-.35.616-.23 1.039-.584 1.27-1.067.229-.484.342-1.14.342-1.979V7.414c0-1.193-.3-2.05-.907-2.587-.602-.535-1.721-.803-3.357-.803h-8.43v12.01zM101.147.057h15.115c1.217 0 2.261.135 3.127.403.87.268 1.584.694 2.139 1.269.559.58.973 1.322 1.245 2.237.277.91.418 2.035.433 3.367v5.282c0 1.738-.226 3.151-.678 4.233-.45 1.083-1.184 1.878-2.2 2.385-1.014.513-2.36.767-4.038.767h-15.143V.057zm30.55 15.977h8.429c1.152 0 2.035-.115 2.651-.35.617-.23 1.04-.584 1.27-1.067.23-.484.342-1.14.342-1.979V7.414c0-1.193-.3-2.05-.907-2.587-.602-.535-1.721-.803-3.356-.803h-8.43v12.01zM127.013.057h15.114c1.217 0 2.261.135 3.127.403.87.268 1.584.694 2.139 1.269.56.58.973 1.322 1.245 2.237.278.91.419 2.035.433 3.367v5.282c0 1.738-.226 3.151-.677 4.233-.452 1.083-1.184 1.878-2.2 2.385-1.015.513-2.36.767-4.039.767h-15.142V.057zM152.514 20V.057h20.003v3.765h-15.32V8.19h14.836v3.477h-14.837v4.569h15.321V20h-20.003zM181.568.057h-6.348l9.023 9.689L174.12 20h6.878l6.944-7.874L194.886 20h6.879L191.642 9.746l9.022-9.689h-6.346l-6.376 7.27-6.374-7.27z"/>
        <rect width="20" height="20" fill="#D03839" rx="4"/>
        <path fill="#FFF" d="M10.735 1.176c.373 0 .68.277.729.636l.007.1v4.117c0 1.326 1.031 2.41 2.335 2.495l.165.005h4.117c.406 0 .736.33.736.736 0 .372-.277.68-.636.728l-.1.007H13.5c-1.869 0-3.395-1.464-3.495-3.308L10 6.5V1.912c0-.406.33-.736.735-.736zm2.353 0c.372 0 .68.277.729.636l.007.1v2.764c0 .78.594 1.42 1.355 1.494l.145.006h2.764c.406 0 .736.33.736.736 0 .372-.277.68-.636.728l-.1.007h-3.235c-1.326 0-2.41-1.031-2.495-2.336l-.005-.164V1.912c0-.406.33-.736.735-.736zm2.353 0c.406 0 .735.33.735.736v1.412c0 .276.224.5.5.5h1.412c.406 0 .736.329.736.735 0 .406-.33.735-.736.735h-1.882c-.829 0-1.5-.671-1.5-1.5V1.912c0-.406.33-.736.735-.736zM9.265 18.824c-.373 0-.68-.277-.729-.636l-.007-.1v-4.117c0-1.326-1.031-2.41-2.335-2.495l-.165-.005H1.912c-.406 0-.736-.33-.736-.736 0-.372.277-.68.636-.728l.1-.007H6.5c1.869 0 3.395 1.464 3.495 3.308L10 13.5v4.588c0 .406-.33.736-.735.736zm-2.353 0c-.372 0-.68-.277-.729-.636l-.007-.1v-2.764c0-.78-.594-1.42-1.355-1.494l-.145-.006H1.912c-.406 0-.736-.33-.736-.736 0-.372.277-.68.636-.728l.1-.007h3.235c1.326 0 2.41 1.031 2.495 2.336l.005.164v3.235c0 .406-.33.736-.735.736zm-2.353 0c-.406 0-.735-.33-.735-.736v-1.412c0-.276-.224-.5-.5-.5H1.912c-.406 0-.736-.329-.736-.735 0-.406.33-.735.736-.735h1.882c.829 0 1.5.671 1.5 1.5v1.882c0 .406-.33.736-.735.736z"/>
    </g>
</svg>
